<?xml version="1.0" encoding="UTF-8" standalone="no"?>
<svg
   xmlns:dc="http://purl.org/dc/elements/1.1/"
   xmlns:cc="http://creativecommons.org/ns#"
   xmlns:rdf="http://www.w3.org/1999/02/22-rdf-syntax-ns#"
   xmlns:svg="http://www.w3.org/2000/svg"
   xmlns="http://www.w3.org/2000/svg"
   xmlns:sodipodi="http://sodipodi.sourceforge.net/DTD/sodipodi-0.dtd"
   xmlns:inkscape="http://www.inkscape.org/namespaces/inkscape"
   xml:space="preserve"
   gorn="0"
   enable-background="new 0 0 57.6 23.76"
   viewBox="0 0 28.8 23.76"
   x="0px"
   height="0.33000001in"
   y="0px"
   id="svg2"
   width="0.40000001in"
   version="1.1"
   inkscape:version="0.91 r13725"
   sodipodi:docname="k155id1-icon.svg"><metadata
     id="metadata130"><rdf:RDF><cc:Work
         rdf:about=""><dc:format>image/svg+xml</dc:format><dc:type
           rdf:resource="http://purl.org/dc/dcmitype/StillImage" /><dc:title></dc:title></cc:Work></rdf:RDF></metadata><defs
     id="defs128" /><sodipodi:namedview
     pagecolor="#ffffff"
     bordercolor="#666666"
     borderopacity="1"
     objecttolerance="10"
     gridtolerance="10"
     guidetolerance="10"
     inkscape:pageopacity="0"
     inkscape:pageshadow="2"
     inkscape:window-width="1380"
     inkscape:window-height="953"
     id="namedview126"
     showgrid="false"
     inkscape:zoom="6.088975"
     inkscape:cx="40.48977"
     inkscape:cy="5.7386592"
     inkscape:window-x="0"
     inkscape:window-y="0"
     inkscape:window-maximized="0"
     inkscape:current-layer="svg2" /><desc
     id="desc3"><referenceFile>74HC595.svg</referenceFile></desc><rect
     gorn="0.0"
     x="2.52"
     height="3.1240001"
     y="20.636"
     id="connector0pin"
     width="2.1600001"
     style="fill:none" /><rect
     gorn="0.1"
     x="9.7200003"
     height="3.1240001"
     y="20.636"
     id="connector1pin"
     width="2.1600001"
     style="fill:none" /><rect
     gorn="0.2"
     x="16.92"
     height="3.1240001"
     y="20.636"
     id="connector2pin"
     width="2.1589999"
     style="fill:none" /><rect
     gorn="0.3"
     x="24.118999"
     height="3.1240001"
     y="20.636"
     id="connector3pin"
     width="2.1600001"
     style="fill:none" /><rect
     gorn="0.4"
     x="31.319"
     height="3.1240001"
     y="20.636"
     id="connector4pin"
     width="2.1600001"
     style="fill:none" /><rect
     gorn="0.5"
     x="38.521"
     height="3.1240001"
     y="20.636"
     id="connector5pin"
     width="2.1589999"
     style="fill:none" /><rect
     gorn="0.6"
     x="45.719002"
     height="3.1240001"
     y="20.636"
     id="connector6pin"
     width="2.1600001"
     style="fill:none" /><rect
     gorn="0.7"
     x="52.918999"
     height="3.1240001"
     y="20.636"
     id="connector7pin"
     width="2.1600001"
     style="fill:none" /><rect
     gorn="0.8"
     x="52.918999"
     height="3.125"
     y="-9.4413758e-07"
     id="connector8pin"
     width="2.1600001"
     style="fill:none" /><rect
     gorn="0.9"
     x="45.719002"
     height="3.125"
     y="-9.4413758e-07"
     id="connector9pin"
     width="2.1600001"
     style="fill:none" /><rect
     gorn="0.10"
     x="38.521"
     height="3.125"
     y="-9.4413758e-07"
     id="connector10pin"
     width="2.1589999"
     style="fill:none" /><rect
     gorn="0.11"
     x="31.319"
     height="3.125"
     y="-9.4413758e-07"
     id="connector11pin"
     width="2.1600001"
     style="fill:none" /><rect
     gorn="0.12"
     x="24.118999"
     height="3.125"
     y="-9.4413758e-07"
     id="connector12pin"
     width="2.1600001"
     style="fill:none" /><rect
     gorn="0.13"
     x="16.92"
     height="3.125"
     y="-9.4413758e-07"
     id="connector13pin"
     width="2.1589999"
     style="fill:none" /><rect
     gorn="0.14"
     x="9.7200003"
     height="3.125"
     y="-9.4413758e-07"
     id="connector14pin"
     width="2.1600001"
     style="fill:none" /><rect
     gorn="0.15"
     x="2.52"
     height="3.125"
     y="-9.4413758e-07"
     id="connector15pin"
     width="2.1600001"
     style="fill:none" /><rect
     gorn="0.16"
     x="2.52"
     height="2.1589999"
     y="21.601"
     id="connector0terminal"
     width="2.1600001"
     style="fill:none" /><rect
     gorn="0.17"
     x="9.7200003"
     height="2.1589999"
     y="21.601"
     id="connector1terminal"
     width="2.1600001"
     style="fill:none" /><rect
     gorn="0.18"
     x="16.92"
     height="2.1589999"
     y="21.601"
     id="connector2terminal"
     width="2.1589999"
     style="fill:none" /><rect
     gorn="0.19"
     x="24.118999"
     height="2.1589999"
     y="21.601"
     id="connector3terminal"
     width="2.1600001"
     style="fill:none" /><rect
     gorn="0.20"
     x="31.319"
     height="2.1589999"
     y="21.601"
     id="connector4terminal"
     width="2.1600001"
     style="fill:none" /><rect
     gorn="0.21"
     x="38.521"
     height="2.1589999"
     y="21.601"
     id="connector5terminal"
     width="2.1589999"
     style="fill:none" /><rect
     gorn="0.22"
     x="45.719002"
     height="2.1589999"
     y="21.601"
     id="connector6terminal"
     width="2.1600001"
     style="fill:none" /><rect
     gorn="0.23"
     x="52.918999"
     height="2.1589999"
     y="21.601"
     id="connector7terminal"
     width="2.1600001"
     style="fill:none" /><rect
     gorn="0.24"
     x="52.918999"
     height="2.1600001"
     y="-9.4413758e-07"
     id="connector8terminal"
     width="2.1600001"
     style="fill:none" /><rect
     gorn="0.25"
     x="45.719002"
     height="2.1600001"
     y="-9.4413758e-07"
     id="connector9terminal"
     width="2.1600001"
     style="fill:none" /><rect
     gorn="0.26"
     x="38.521"
     height="2.1600001"
     y="-9.4413758e-07"
     id="connector10terminal"
     width="2.1589999"
     style="fill:none" /><rect
     gorn="0.27"
     x="31.319"
     height="2.1600001"
     y="-9.4413758e-07"
     id="connector11terminal"
     width="2.1600001"
     style="fill:none" /><rect
     gorn="0.28"
     x="24.118999"
     height="2.1600001"
     y="-9.4413758e-07"
     id="connector12terminal"
     width="2.1600001"
     style="fill:none" /><rect
     gorn="0.29"
     x="16.92"
     height="2.1600001"
     y="-9.4413758e-07"
     id="connector13terminal"
     width="2.1589999"
     style="fill:none" /><rect
     gorn="0.30"
     x="9.7200003"
     height="2.1600001"
     y="-9.4413758e-07"
     id="connector14terminal"
     width="2.1600001"
     style="fill:none" /><rect
     gorn="0.31"
     x="2.52"
     height="2.1600001"
     y="-9.4413758e-07"
     id="connector15terminal"
     width="2.1600001"
     style="fill:none" /><g
     gorn="0.32"
     id="breadboard"><rect
       x="2.52"
       height="4.8109999"
       y="18.948999"
       width="2.1600001"
       id="rect38"
       style="fill:#8c8c8c" /><rect
       x="9.7200003"
       height="4.8109999"
       y="18.948999"
       width="2.1600001"
       id="rect40"
       style="fill:#8c8c8c" /><rect
       x="16.92"
       height="4.8109999"
       y="18.948999"
       width="2.1589999"
       id="rect42"
       style="fill:#8c8c8c" /><rect
       x="24.118999"
       height="4.8109999"
       y="18.948999"
       width="2.1600001"
       id="rect44"
       style="fill:#8c8c8c" /><rect
       x="31.319"
       height="4.8109999"
       y="18.948999"
       width="2.1600001"
       id="rect46"
       style="fill:#8c8c8c" /><rect
       x="38.521"
       height="4.8109999"
       y="18.948999"
       width="2.1589999"
       id="rect48"
       style="fill:#8c8c8c" /><rect
       x="45.719002"
       height="4.8109999"
       y="18.948999"
       width="2.1600001"
       id="rect50"
       style="fill:#8c8c8c" /><rect
       x="52.918999"
       height="4.8109999"
       y="18.948999"
       width="2.1600001"
       id="rect52"
       style="fill:#8c8c8c" /><rect
       x="52.918999"
       height="4.8099999"
       y="0"
       width="2.1600001"
       id="rect54"
       style="fill:#8c8c8c" /><rect
       x="45.719002"
       height="4.8099999"
       y="0"
       width="2.1600001"
       id="rect56"
       style="fill:#8c8c8c" /><rect
       x="38.521"
       height="4.8099999"
       y="0"
       width="2.1589999"
       id="rect58"
       style="fill:#8c8c8c" /><rect
       x="31.319"
       height="4.8099999"
       y="0"
       width="2.1600001"
       id="rect60"
       style="fill:#8c8c8c" /><rect
       x="24.118999"
       height="4.8099999"
       y="0"
       width="2.1600001"
       id="rect62"
       style="fill:#8c8c8c" /><rect
       x="16.92"
       height="4.8099999"
       y="0"
       width="2.1589999"
       id="rect64"
       style="fill:#8c8c8c" /><rect
       x="9.7200003"
       height="4.8099999"
       y="0"
       width="2.1600001"
       id="rect66"
       style="fill:#8c8c8c" /><rect
       x="2.52"
       height="4.8099999"
       y="0"
       width="2.1600001"
       id="rect68"
       style="fill:#8c8c8c" /><polygon
       points="57.059,8.281 0,8.281 0,2.16 57.6,2.16 "
       id="polygon70"
       style="fill:#3d3d3d" /><polygon
       points="57.6,21.601 0,21.601 0,15.479 57.059,15.479 "
       id="polygon72" /><polygon
       points="6.12,2.347 4.68,1.685 2.52,1.685 2.52,3.125 6.12,3.125 "
       id="polygon74"
       style="fill:#8c8c8c" /><polygon
       points="55.079,1.685 52.919,1.685 51.478,2.347 51.478,3.125 55.079,3.125 "
       id="polygon76"
       style="fill:#8c8c8c" /><polygon
       points="2.52,22.074 4.68,22.074 6.12,21.412 6.12,20.636 2.52,20.636 "
       id="polygon78"
       style="fill:#8c8c8c" /><polygon
       points="51.478,21.412 52.919,22.074 55.079,22.074 55.079,20.636 51.478,20.636 "
       id="polygon80"
       style="fill:#8c8c8c" /><polygon
       points="13.32,3.125 13.32,2.347 11.88,1.685 9.72,1.685 8.28,2.347 8.28,3.125 "
       id="polygon82"
       style="fill:#8c8c8c" /><polygon
       points="8.28,20.636 8.28,21.412 9.72,22.074 11.88,22.074 13.32,21.412 13.32,20.636 "
       id="polygon84"
       style="fill:#8c8c8c" /><polygon
       points="20.52,3.125 20.52,2.347 19.079,1.685 16.92,1.685 15.48,2.347 15.48,3.125 "
       id="polygon86"
       style="fill:#8c8c8c" /><polygon
       points="15.48,20.636 15.48,21.412 16.92,22.074 19.079,22.074 20.52,21.412 20.52,20.636 "
       id="polygon88"
       style="fill:#8c8c8c" /><polygon
       points="27.72,3.125 27.72,2.347 26.28,1.685 24.119,1.685 22.68,2.347 22.68,3.125 "
       id="polygon90"
       style="fill:#8c8c8c" /><polygon
       points="22.68,20.636 22.68,21.412 24.119,22.074 26.28,22.074 27.72,21.412 27.72,20.636 "
       id="polygon92"
       style="fill:#8c8c8c" /><polygon
       points="34.919,3.125 34.919,2.347 33.479,1.685 31.319,1.685 29.879,2.347 29.879,3.125 "
       id="polygon94"
       style="fill:#8c8c8c" /><polygon
       points="29.879,20.636 29.879,21.412 31.319,22.074 33.479,22.074 34.919,21.412 34.919,20.636 "
       id="polygon96"
       style="fill:#8c8c8c" /><polygon
       points="42.119,3.125 42.119,2.347 40.68,1.685 38.521,1.685 37.079,2.347 37.079,3.125 "
       id="polygon98"
       style="fill:#8c8c8c" /><polygon
       points="37.079,20.636 37.079,21.412 38.521,22.074 40.68,22.074 42.119,21.412 42.119,20.636 "
       id="polygon100"
       style="fill:#8c8c8c" /><polygon
       points="49.319,3.125 49.319,2.347 47.879,1.685 45.719,1.685 44.28,2.347 44.28,3.125 "
       id="polygon102"
       style="fill:#8c8c8c" /><polygon
       points="44.28,20.636 44.28,21.412 45.719,22.074 47.879,22.074 49.319,21.412 49.319,20.636 "
       id="polygon104"
       style="fill:#8c8c8c" /><polygon
       points="57.6,2.16 57.059,3.931 56.053,3.931 56.053,19.821 57.059,19.828 57.6,21.601 "
       id="polygon106"
       style="fill:#141414" /><polygon
       points="0.54,19.828 0,21.601 0,2.16 0.54,3.931 0.54,8.281 3.6,8.281 3.6,15.479 0.54,15.479 "
       id="polygon108"
       style="fill:#1f1f1f" /><polygon
       points="0.54,8.281 0.403,9.792 0.403,11.88 3.6,11.88 3.6,8.281 "
       id="polygon110"
       style="fill:#1c1c1c" /><polygon
       points="3.6,15.479 3.6,11.88 0.403,11.88 0.403,13.968 0.54,15.479 "
       id="polygon112"
       style="fill:#383838" /><path
       d="m 0.54,3.931 0,4.32 c 1.713,0.324 3.017,1.822 3.017,3.629 0,1.807 -1.296,3.313 -3.017,3.637 l 0,4.319 56.519,0 0,-15.905 -56.519,0 z"
       id="path114"
       inkscape:connector-curvature="0"
       style="fill:#303030" /><path
       d="m 0.403,9.792 0,4.196 C 1.462,13.867 2.29,12.98 2.29,11.886 2.29,10.8 1.469,9.9 0.403,9.792 Z"
       id="path116"
       inkscape:connector-curvature="0"
       style="fill:#262626" /><circle
       cx="4.6799998"
       cy="16.898001"
       r="1.483"
       id="circle118"
       style="fill:#212121" /></g><rect
     x="6.494"
     height="5.9499998"
     y="9.7919989"
     width="32.372002"
     id="rect120"
     style="fill:none" /><g
     transform="translate(8.3332901,14.168784)"
     id="g122"><text
       font-size="5.76"
       id="text124"
       style="font-size:5.76000023px;font-family:OCRA;fill:#e5e5e5">K155ID1</text>
</g></svg>